<svg id="Layer_1" data-name="Layer 1" xmlns="http://www.w3.org/2000/svg" viewBox="0 0 32 32"><defs><style>.cls-1{fill:#747987;}</style></defs><title>Clock</title><path class="cls-1" d="M16,25.87A9.87,9.87,0,1,0,6.13,16,9.88,9.88,0,0,0,16,25.87ZM16,8.13A7.88,7.88,0,0,1,23.8,15H23a1,1,0,1,0,0,2h.81A7.89,7.89,0,0,1,17,23.8v-1a1,1,0,1,0-2,0v1A7.89,7.89,0,0,1,8.2,17H9a1,1,0,0,0,0-2H8.2A7.88,7.88,0,0,1,16,8.13Z"/><path class="cls-1" d="M16,17.52a2.2,2.2,0,0,0,.36,0L19.93,20a1,1,0,0,0,.58.19,1,1,0,0,0,.81-.42,1,1,0,0,0-.23-1.39l-3.58-2.58a1.56,1.56,0,0,0-.51-1V10.45a1,1,0,0,0-2,0v4.41A1.5,1.5,0,0,0,14.48,16,1.52,1.52,0,0,0,16,17.52Z"/></svg>